<svg xmlns="http://www.w3.org/2000/svg" xmlns:xlink="http://www.w3.org/1999/xlink" width="113" zoomAndPan="magnify" viewBox="0 0 84.75 37.5" height="50" preserveAspectRatio="xMidYMid meet" version="1.0"><defs><g/><clipPath id="8625b78ba3"><path d="M 70 4 L 84.070312 4 L 84.070312 22 L 70 22 Z M 70 4 " clip-rule="nonzero"/></clipPath><clipPath id="de0b4a8d9e"><path d="M 0.433594 2 L 12 2 L 12 18 L 0.433594 18 Z M 0.433594 2 " clip-rule="nonzero"/></clipPath></defs><g fill="#ffffff" fill-opacity="1"><g transform="translate(16.063489, 15.821141)"><g><path d="M 8.484375 0 L 5.609375 -5.34375 L 5.171875 -5.34375 L 5.171875 0 L 1.15625 0 L 1.15625 -14.46875 L 7.5 -14.46875 C 8.65625 -14.46875 9.632812 -14.265625 10.4375 -13.859375 C 11.25 -13.460938 11.859375 -12.910156 12.265625 -12.203125 C 12.679688 -11.492188 12.890625 -10.703125 12.890625 -9.828125 C 12.890625 -8.847656 12.617188 -7.984375 12.078125 -7.234375 C 11.535156 -6.492188 10.75 -5.960938 9.71875 -5.640625 L 12.96875 0 Z M 5.171875 -8.09375 L 7.171875 -8.09375 C 7.710938 -8.09375 8.117188 -8.222656 8.390625 -8.484375 C 8.671875 -8.742188 8.8125 -9.117188 8.8125 -9.609375 C 8.8125 -10.078125 8.671875 -10.441406 8.390625 -10.703125 C 8.109375 -10.972656 7.703125 -11.109375 7.171875 -11.109375 L 5.171875 -11.109375 Z M 5.171875 -8.09375 "/></g></g></g><g fill="#ffffff" fill-opacity="1"><g transform="translate(29.634657, 15.821141)"><g><path d="M 6.515625 0.140625 C 5.359375 0.140625 4.320312 -0.0976562 3.40625 -0.578125 C 2.5 -1.054688 1.785156 -1.738281 1.265625 -2.625 C 0.753906 -3.519531 0.5 -4.566406 0.5 -5.765625 C 0.5 -6.960938 0.757812 -8.003906 1.28125 -8.890625 C 1.8125 -9.773438 2.53125 -10.457031 3.4375 -10.9375 C 4.34375 -11.414062 5.375 -11.65625 6.53125 -11.65625 C 7.675781 -11.65625 8.703125 -11.414062 9.609375 -10.9375 C 10.523438 -10.457031 11.242188 -9.773438 11.765625 -8.890625 C 12.296875 -8.003906 12.5625 -6.960938 12.5625 -5.765625 C 12.5625 -4.578125 12.296875 -3.535156 11.765625 -2.640625 C 11.242188 -1.742188 10.523438 -1.054688 9.609375 -0.578125 C 8.691406 -0.0976562 7.660156 0.140625 6.515625 0.140625 Z M 6.515625 -3.34375 C 7.066406 -3.34375 7.53125 -3.550781 7.90625 -3.96875 C 8.289062 -4.382812 8.484375 -4.984375 8.484375 -5.765625 C 8.484375 -6.546875 8.289062 -7.140625 7.90625 -7.546875 C 7.53125 -7.960938 7.070312 -8.171875 6.53125 -8.171875 C 5.976562 -8.171875 5.515625 -7.960938 5.140625 -7.546875 C 4.773438 -7.140625 4.59375 -6.546875 4.59375 -5.765625 C 4.59375 -4.972656 4.769531 -4.367188 5.125 -3.953125 C 5.488281 -3.546875 5.953125 -3.34375 6.515625 -3.34375 Z M 6.515625 -3.34375 "/></g></g></g><g fill="#ffffff" fill-opacity="1"><g transform="translate(42.692546, 15.821141)"><g><path d="M 8.6875 -11.625 C 10.007812 -11.625 11.0625 -11.179688 11.84375 -10.296875 C 12.625 -9.410156 13.015625 -8.21875 13.015625 -6.71875 L 13.015625 0 L 9 0 L 9 -6.1875 C 9 -6.84375 8.828125 -7.359375 8.484375 -7.734375 C 8.140625 -8.109375 7.679688 -8.296875 7.109375 -8.296875 C 6.503906 -8.296875 6.03125 -8.109375 5.6875 -7.734375 C 5.34375 -7.359375 5.171875 -6.84375 5.171875 -6.1875 L 5.171875 0 L 1.15625 0 L 1.15625 -11.515625 L 5.171875 -11.515625 L 5.171875 -9.875 C 5.523438 -10.394531 6.003906 -10.816406 6.609375 -11.140625 C 7.210938 -11.460938 7.90625 -11.625 8.6875 -11.625 Z M 8.6875 -11.625 "/></g></g></g><g fill="#ffffff" fill-opacity="1"><g transform="translate(56.776997, 15.821141)"><g><path d="M 8.6875 -11.625 C 10.007812 -11.625 11.0625 -11.179688 11.84375 -10.296875 C 12.625 -9.410156 13.015625 -8.21875 13.015625 -6.71875 L 13.015625 0 L 9 0 L 9 -6.1875 C 9 -6.84375 8.828125 -7.359375 8.484375 -7.734375 C 8.140625 -8.109375 7.679688 -8.296875 7.109375 -8.296875 C 6.503906 -8.296875 6.03125 -8.109375 5.6875 -7.734375 C 5.34375 -7.359375 5.171875 -6.84375 5.171875 -6.1875 L 5.171875 0 L 1.15625 0 L 1.15625 -11.515625 L 5.171875 -11.515625 L 5.171875 -9.875 C 5.523438 -10.394531 6.003906 -10.816406 6.609375 -11.140625 C 7.210938 -11.460938 7.90625 -11.625 8.6875 -11.625 Z M 8.6875 -11.625 "/></g></g></g><g clip-path="url(#8625b78ba3)"><g fill="#ffffff" fill-opacity="1"><g transform="translate(70.861448, 15.821141)"><g><path d="M 13.546875 -11.515625 L 6.234375 5.484375 L 1.875 5.484375 L 4.625 -0.5 L -0.109375 -11.515625 L 4.375 -11.515625 L 6.796875 -4.984375 L 9.140625 -11.515625 Z M 13.546875 -11.515625 "/></g></g></g></g><g clip-path="url(#de0b4a8d9e)"><g fill="#ffffff" fill-opacity="1"><g transform="translate(-0.926328, 20.229816)"><g><path d="M 4.171875 -10.382812 L 12.542969 -14.527344 L 12.542969 -17.808594 L 0.472656 -11.359375 L 0.472656 -9.320312 L 12.542969 -3.046875 L 12.542969 -6.183594 Z M 4.171875 -10.382812 "/></g></g></g></g><path stroke-linecap="butt" transform="matrix(0.220803, 0, 0, 0.220803, 16.568003, 14.523627)" fill="none" stroke-linejoin="miter" d="M 22.566593 71.488819 C 16.746226 71.488819 11.916559 70.126606 8.130667 67.384487 C 4.327083 64.642369 2.274917 60.626492 1.974169 55.336858 L 18.232277 55.336858 C 18.462261 58.14974 19.718328 59.547336 21.965096 59.547336 C 22.796577 59.547336 23.486529 59.352734 24.052644 58.96353 C 24.63645 58.574326 24.937199 57.955138 24.937199 57.141348 C 24.937199 55.991428 24.300319 55.0538 23.061943 54.346157 C 21.823567 53.638513 19.895239 52.807032 17.276958 51.887096 C 14.145636 50.790249 11.545046 49.711092 9.510572 48.667318 C 7.458406 47.605853 5.706988 46.066729 4.238628 44.049945 C 2.770268 42.01547 2.062624 39.41488 2.098007 36.248176 C 2.098007 33.081472 2.911797 30.374735 4.539376 28.145659 C 6.184647 25.916582 8.413724 24.235929 11.244298 23.086008 C 14.074872 21.936087 17.259267 21.352282 20.797484 21.352282 C 26.75938 21.352282 31.500591 22.732186 35.021118 25.491996 C 38.541644 28.234114 40.399208 32.126153 40.576119 37.150421 L 24.105718 37.150421 C 24.052644 35.770517 23.698823 34.779816 23.061943 34.178319 C 22.425064 33.576822 21.646657 33.276073 20.72672 33.276073 C 20.07215 33.276073 19.541417 33.488366 19.116831 33.930644 C 18.727627 34.372921 18.515334 34.974418 18.515334 35.770517 C 18.515334 36.867364 19.116831 37.769609 20.337516 38.494944 C 21.558201 39.202587 23.504221 40.051759 26.157883 41.060151 C 29.253824 42.227763 31.783649 43.32461 33.782742 44.386075 C 35.781834 45.42985 37.515561 46.915901 38.983921 48.791156 C 40.452281 50.684102 41.195307 53.054708 41.195307 55.902972 C 41.195307 58.875075 40.452281 61.56412 38.983921 63.934725 C 37.515561 66.305331 35.374939 68.145204 32.579748 69.489726 C 29.766865 70.816558 26.440941 71.488819 22.566593 71.488819 Z M 54.304401 29.012522 C 51.633047 29.012522 49.492426 28.304878 47.882537 26.8719 C 46.272648 25.438922 45.458858 23.652123 45.458858 21.49381 C 45.458858 19.282424 46.272648 17.442552 47.882537 15.991882 C 49.492426 14.541213 51.633047 13.83357 54.304401 13.83357 C 56.922682 13.83357 59.027921 14.541213 60.63781 15.991882 C 62.247699 17.442552 63.061489 19.282424 63.061489 21.49381 C 63.061489 23.652123 62.247699 25.438922 60.63781 26.8719 C 59.027921 28.304878 56.922682 29.012522 54.304401 29.012522 Z M 61.876186 32.108462 L 61.876186 70.993469 L 46.573397 70.993469 L 46.573397 32.108462 Z M 84.078499 19.972377 L 84.078499 70.993469 L 68.77571 70.993469 L 68.77571 19.972377 Z M 110.703583 56.451396 L 116.913154 32.108462 L 133.188954 32.108462 L 120.221388 70.993469 L 101.115015 70.993469 L 88.147449 32.108462 L 104.440939 32.108462 Z M 135.188046 51.550965 C 135.188046 47.464324 135.877999 43.908416 137.293286 40.900932 C 138.690881 37.893447 140.601519 35.593606 143.042888 34.019099 C 145.484258 32.40921 148.208686 31.613111 151.233861 31.613111 C 153.781378 31.613111 155.957381 32.143844 157.797254 33.187618 C 159.637127 34.213701 161.034723 35.628988 162.007733 37.415788 L 162.007733 32.108462 L 177.239758 32.108462 L 177.239758 70.993469 L 162.007733 70.993469 L 162.007733 65.703834 C 161.034723 67.472943 159.637127 68.88823 157.797254 69.932004 C 155.957381 70.975778 153.781378 71.488819 151.233861 71.488819 C 148.208686 71.488819 145.484258 70.69272 143.042888 69.118214 C 140.601519 67.526016 138.690881 65.226175 137.293286 62.21869 C 135.877999 59.193514 135.188046 55.637606 135.188046 51.550965 Z M 162.007733 51.550965 C 162.007733 49.481108 161.477 47.88891 160.415535 46.73899 C 159.35407 45.589069 158.009547 45.005263 156.346585 45.005263 C 154.701314 45.005263 153.339101 45.589069 152.277635 46.73899 C 151.233861 47.88891 150.703129 49.481108 150.703129 51.550965 C 150.703129 53.620822 151.233861 55.230711 152.277635 56.380632 C 153.339101 57.530552 154.701314 58.096667 156.346585 58.096667 C 158.009547 58.096667 159.35407 57.530552 160.415535 56.380632 C 161.477 55.230711 162.007733 53.620822 162.007733 51.550965 Z M 162.007733 51.550965 " stroke="#ffffff" stroke-width="2.586075" stroke-opacity="1" stroke-miterlimit="4"/><g fill="#ffffff" fill-opacity="1"><g transform="translate(74.921504, 20.795934)"><g><path d="M -2.769531 6.890625 L -8.324219 9.640625 L -8.324219 11.820312 L -0.3125 7.539062 L -0.3125 6.183594 L -8.324219 2.023438 L -8.324219 4.105469 Z M -2.769531 6.890625 "/></g></g></g><g fill="#ffffff" fill-opacity="1"><g transform="translate(65.693419, 20.795934)"><g><path d="M -0.175781 -1.277344 L -2.101562 -1.277344 L -7.738281 15.277344 L -5.832031 15.277344 Z M -0.175781 -1.277344 "/></g></g></g><g fill="#ffffff" fill-opacity="1"><g transform="translate(57.467694, 20.795934)"><g/></g></g></svg>